<svg xmlns="http://www.w3.org/2000/svg" viewBox="4 4 24 24" width="24" height="24"><path d="M 28.00,16.00 L 27.94,17.19 L 27.76,18.38 L 27.47,19.54 L 27.06,20.66 L 26.54,21.74 L 25.92,22.76 L 25.19,23.71 L 24.38,24.59 L 23.48,25.38 L 22.51,26.08 L 21.48,26.68 L 20.39,27.17 L 19.25,27.55 L 18.09,27.82 L 16.90,27.97 L 15.70,28.00 L 14.51,27.91 L 13.33,27.70 L 12.18,27.38 L 11.07,26.94 L 10.00,26.39 L 9.00,25.75 L 8.06,25.00 L 7.21,24.16 L 6.44,23.25 L 5.76,22.26 L 5.19,21.21 L 4.73,20.11 L 4.37,18.97 L 4.13,17.79 L 4.02,16.60 L 4.01,15.41 L 4.13,14.22 L 4.37,13.04 L 4.72,11.90 L 5.19,10.80 L 5.76,9.75 L 6.43,8.76 L 7.20,7.84 L 8.05,7.01 L 8.99,6.26 L 9.99,5.61 L 11.06,5.06 L 12.17,4.63 L 13.32,4.30 L 14.50,4.09 L 15.69,4.00 L 16.89,4.03 L 18.08,4.18 L 19.24,4.45 L 20.38,4.83 L 21.47,5.32 L 22.50,5.92 L 23.48,6.61 L 24.37,7.40 L 25.19,8.28 L 25.91,9.23 L 26.53,10.25 L 27.05,11.33 L 27.46,12.45 L 20.00,16.00 L 20.00,15.88 L 19.98,15.58 L 19.94,15.29 L 19.88,14.99 L 19.81,14.71 L 19.71,14.42 L 19.59,14.14 L 19.46,13.87 L 19.31,13.61 L 19.14,13.36 L 18.95,13.12 L 18.74,12.89 L 18.52,12.67 L 18.28,12.46 L 18.03,12.27 L 17.76,12.10 L 17.48,11.94 L 17.19,11.80 L 16.88,11.68 L 16.56,11.58 L 16.24,11.51 L 15.90,11.45 L 15.56,11.42 L 15.21,11.41 L 14.85,11.42 L 14.50,11.46 L 14.14,11.53 L 13.78,11.62 L 13.43,11.74 L 13.08,11.88 L 12.73,12.05 L 12.39,12.25 L 12.07,12.48 L 11.75,12.73 L 11.45,13.01 L 11.16,13.31 L 10.90,13.64 L 10.65,14.00 L 10.43,14.37 L 10.23,14.77 L 10.05,15.19 L 9.91,15.63 L 9.80,16.09 L 9.71,16.56 L 9.66,17.04 L 9.65,17.53 L 9.67,18.04 L 9.74,18.54 L 9.84,19.06 L 9.98,19.57 L 10.16,20.08 L 10.38,20.58 L 10.64,21.07 L 10.94,21.55 L 11.29,22.02 L 11.67,22.47 L 12.10,22.89 L 12.56,23.29 L 13.06,23.66 L 13.60,24.00 L 14.17,24.30 L 14.77,24.56 L 15.40,24.78 L 16.05,24.96 L 16.73,25.09 L 17.43,25.17 L 18.14,25.20 L 18.87,25.17 L 19.61,25.09 L 20.35,24.95 L 21.09,24.75 L 21.83,24.50 L 22.55,24.18 L 23.27,23.80 L 23.96,23.36 L 24.63,22.87 L 25.28,22.31 L 25.88,21.70 L 26.46,21.04 L 26.98,20.32 L 27.46,19.55 L 27.76,18.38 L 27.94,17.20 L 28.00,16.00 Z" fill="#23a67a"></path></svg>