<svg xmlns="http://www.w3.org/2000/svg" viewBox="0 0 32 32" width="32" height="32"><path d="M 28.00,16.00 L 27.98,16.63 L 27.93,17.25 L 27.85,17.88 L 27.74,18.49 L 27.59,19.11 L 27.41,19.71 L 27.20,20.30 L 26.96,20.88 L 26.69,21.45 L 26.39,22.00 L 26.06,22.54 L 25.71,23.05 L 25.33,23.55 L 24.92,24.03 L 24.49,24.49 L 24.03,24.92 L 23.55,25.33 L 23.05,25.71 L 22.54,26.06 L 22.00,26.39 L 21.45,26.69 L 20.88,26.96 L 20.30,27.20 L 19.71,27.41 L 19.11,27.59 L 18.49,27.74 L 17.88,27.85 L 17.25,27.93 L 16.63,27.98 L 16.00,28.00 L 15.37,27.98 L 14.75,27.93 L 14.12,27.85 L 13.51,27.74 L 12.89,27.59 L 12.29,27.41 L 11.70,27.20 L 11.12,26.96 L 10.55,26.69 L 10.00,26.39 L 9.46,26.06 L 8.95,25.71 L 8.45,25.33 L 7.97,24.92 L 7.51,24.49 L 7.08,24.03 L 6.67,23.55 L 6.29,23.05 L 5.94,22.54 L 5.61,22.00 L 5.31,21.45 L 5.04,20.88 L 4.80,20.30 L 4.59,19.71 L 4.41,19.11 L 4.26,18.49 L 4.15,17.88 L 4.07,17.25 L 4.02,16.63 L 4.00,16.00 L 4.02,15.37 L 4.07,14.75 L 4.15,14.12 L 4.26,13.51 L 4.41,12.89 L 4.59,12.29 L 4.80,11.70 L 5.04,11.12 L 5.31,10.55 L 5.61,10.00 L 5.94,9.46 L 6.29,8.95 L 6.67,8.45 L 7.08,7.97 L 7.51,7.51 L 7.97,7.08 L 8.45,6.67 L 8.95,6.29 L 9.46,5.94 L 10.00,5.61 L 10.55,5.31 L 11.12,5.04 L 11.70,4.80 L 12.29,4.59 L 12.89,4.41 L 13.51,4.26 L 14.12,4.15 L 14.75,4.07 L 15.37,4.02 L 16.00,4.00 L 16.63,4.02 L 17.25,4.07 L 17.88,4.15 L 18.49,4.26 L 19.11,4.41 L 19.71,4.59 L 20.30,4.80 L 20.88,5.04 L 21.45,5.31 L 22.00,5.61 L 22.54,5.94 L 23.05,6.29 L 23.55,6.67 L 24.03,7.08 L 24.49,7.51 L 24.92,7.97 L 25.33,8.45 L 25.71,8.95 L 26.06,9.46 L 26.39,10.00 L 26.69,10.55 L 26.96,11.12 L 27.20,11.70 L 27.41,12.29 L 27.59,12.89 L 27.74,13.51 L 27.85,14.12 L 27.93,14.75 L 27.98,15.37 L 28.00,16.00 L 16.00,16.00 L 16.10,15.99 L 16.20,15.98 L 16.30,15.95 L 16.39,15.92 L 16.48,15.87 L 16.57,15.81 L 16.65,15.75 L 16.73,15.67 L 16.80,15.59 L 16.87,15.50 L 16.92,15.40 L 16.97,15.29 L 17.01,15.18 L 17.04,15.06 L 17.06,14.94 L 17.07,14.81 L 17.07,14.68 L 17.06,14.54 L 17.03,14.41 L 17.00,14.27 L 16.95,14.13 L 16.89,13.99 L 16.82,13.85 L 16.74,13.72 L 16.65,13.59 L 16.54,13.46 L 16.42,13.33 L 16.29,13.22 L 16.15,13.10 L 16.00,13.00 L 15.84,12.90 L 15.67,12.82 L 15.48,12.74 L 15.29,12.67 L 15.09,12.62 L 14.89,12.58 L 14.67,12.55 L 14.45,12.53 L 14.23,12.53 L 14.00,12.54 L 13.77,12.56 L 13.53,12.60 L 13.29,12.66 L 13.06,12.73 L 12.82,12.82 L 12.58,12.92 L 12.35,13.04 L 12.12,13.18 L 11.89,13.33 L 11.67,13.50 L 11.46,13.68 L 11.25,13.88 L 11.05,14.10 L 10.86,14.33 L 10.69,14.58 L 10.52,14.84 L 10.37,15.11 L 10.23,15.39 L 10.11,15.69 L 10.00,16.00 L 9.91,16.32 L 9.83,16.65 L 9.78,16.99 L 9.74,17.33 L 9.72,17.68 L 9.72,18.04 L 9.75,18.40 L 9.79,18.77 L 9.85,19.13 L 9.94,19.50 L 10.05,19.87 L 10.18,20.23 L 10.33,20.59 L 10.50,20.95 L 10.70,21.30 L 10.91,21.65 L 11.15,21.98 L 11.42,22.31 L 11.70,22.63 L 12.00,22.93 L 12.32,23.22 L 12.66,23.49 L 13.03,23.75 L 13.40,23.99 L 13.80,24.21 L 14.21,24.41 L 14.64,24.59 L 15.08,24.75 L 15.53,24.89 L 16.00,25.00 L 16.48,25.09 L 16.96,25.15 L 17.45,25.19 L 17.95,25.19 L 18.46,25.18 L 18.97,25.13 L 19.48,25.06 L 19.99,24.95 L 20.49,24.82 L 21.00,24.66 L 21.50,24.47 L 22.00,24.25 L 22.48,24.00 L 22.96,23.73 L 23.42,23.42 L 23.88,23.09 L 24.32,22.73 L 24.74,22.35 L 25.14,21.94 L 25.53,21.50 L 25.89,21.04 L 26.23,20.56 L 26.55,20.05 L 26.84,19.52 L 27.11,18.98 L 27.35,18.41 L 27.56,17.83 L 27.74,17.23 L 27.88,16.62 L 28.00,16.00 Z" fill="#23a67a"></path></svg>